<!--?xml version="1.0" encoding="utf-8"?-->
<!-- Generator: Adobe Illustrator 19.1.1, SVG Export Plug-In . SVG Version: 6.00 Build 0)  -->
<svg version="1.1" id="_x31_0" xmlns="http://www.w3.org/2000/svg" xmlns:xlink="http://www.w3.org/1999/xlink" x="0px" y="0px" viewBox="0 0 512 512" style="width: 256px; height: 256px; opacity: 1;" xml:space="preserve">
<style type="text/css">
	.st0{fill:#374149;}
</style>
<g>
	<path class="st0" d="M505.27,140.539c0-5.488-4.438-9.941-9.942-9.945h-14.187h-20.758l-20.641,0.004h-20.758l-14.187-0.004
		c-5.484,0.004-9.938,4.457-9.938,9.945v21.227h-0.008v3.113v7.039c0,8.289,4.016,16.07,10.782,20.871l23.426,16.633
		c1.703,1.445,3.527,2.66,5.422,3.699V259.2h7.73v77.082c0,26.398-21.473,47.875-47.875,47.875h-40.898V56.008
		c0-18.687-15.153-33.758-33.762-33.758H87.195c-18.687,0-33.762,15.07-33.762,33.758V430.02v0.984H5.942
		c-3.278,0-5.942,2.661-5.942,5.942v46.871c0,3.282,2.664,5.934,5.942,5.934h394.996c3.278,0,5.934-2.652,5.934-5.934v-46.871
		c0-3.281-2.656-5.942-5.934-5.942h-47.5V399.86h40.898c35.058,0,63.578-28.52,63.578-63.578V259.2h7.73v-46.078
		c1.894-1.039,3.718-2.254,5.426-3.699l23.426-16.633c4.656-3.305,7.973-8.043,9.61-13.371c0.011-0.039,0.023-0.07,0.031-0.11
		c0.718-2.375,1.137-4.851,1.137-7.39v-7.039v-3.117h-0.004V140.539z M192.707,404.461l12.336-54.965l-33.726-9.031l-13.727-3.742
		l57.192-69.356c-0.942,3.926-12.406,55.274-12.406,55.274l33.675,9.035l13.703,3.742l-30.16,36.621L192.707,404.461z
		 M293.453,82.234v131.274H113.418V82.234H293.453z" style="fill: rgb(255, 255, 255);"></path>
	<path class="st0" d="M434.554,70.207c0-5.714-4.664-10.371-10.382-10.371c-5.73,0-10.375,4.657-10.375,10.371v25.352v0.054v0.058
		h20.758V70.207z" style="fill: rgb(255, 255, 255);"></path>
	<path class="st0" d="M486.332,70.211c0-5.718-4.664-10.375-10.379-10.382c-5.734,0.007-10.378,4.664-10.378,10.382v25.461h20.758
		V70.211z" style="fill: rgb(255, 255, 255);"></path>
	<path class="st0" d="M510.183,102.812H389.946c-1,0-1.821,0.817-1.821,1.821v16.617c0,1,0.821,1.817,1.821,1.817h120.238
		c0.997,0.003,1.817-0.817,1.817-1.817v-16.617C512,103.629,511.187,102.808,510.183,102.812z" style="fill: rgb(255, 255, 255);"></path>
</g>
</svg>
